<svg xmlns="http://www.w3.org/2000/svg" width="1622" height="704" viewBox="0 0 1622 704">
  <g id="Group_1454" data-name="Group 1454" transform="translate(-150 -1897)">
    <g id="Group_1436" data-name="Group 1436">
      <text id="Problem_Statement" data-name="Problem
Statement" transform="translate(230 2112)" fill="#3b728f" font-size="32" font-family="Bahnschrift"><tspan x="-60.578" y="0">Problem</tspan><tspan x="-73.82" y="40">Statement</tspan></text>
      <g id="conversation" transform="translate(150 1897)">
        <g id="Group_1406" data-name="Group 1406" transform="translate(0 54.375)">
          <g id="Group_1405" data-name="Group 1405">
            <path id="Path_569" data-name="Path 569" d="M108.125,219.313A3.125,3.125,0,0,0,105,222.438V244a15.643,15.643,0,0,1-15.625,15.625H55.635a3.125,3.125,0,0,0-3.125,3.123l0,6.213L45.047,261.5a3.126,3.126,0,0,0-2.866-1.877H21.875A15.643,15.643,0,0,1,6.25,244V195.875A15.643,15.643,0,0,1,21.875,180.25H53.438a3.125,3.125,0,0,0,0-6.25H21.875A21.9,21.9,0,0,0,0,195.875V244a21.9,21.9,0,0,0,21.875,21.875H40.581L53.415,278.71A3.125,3.125,0,0,0,58.75,276.5l.007-10.627H89.375A21.9,21.9,0,0,0,111.25,244V222.438A3.125,3.125,0,0,0,108.125,219.313Z" transform="translate(0 -174)" fill="#3b728f"/>
          </g>
        </g>
        <g id="Group_1408" data-name="Group 1408" transform="translate(61.25)">
          <g id="Group_1407" data-name="Group 1407">
            <path id="Path_570" data-name="Path 570" d="M249.33,0h-7.909a45.42,45.42,0,0,0,0,90.841h7.909a45.507,45.507,0,0,0,11.528-1.478l11.683,11.677a3.125,3.125,0,0,0,5.334-2.21V80.75A45.854,45.854,0,0,0,289.814,66.03a44.931,44.931,0,0,0,4.936-20.61A45.472,45.472,0,0,0,249.33,0Zm23.54,76.73a3.126,3.126,0,0,0-1.245,2.5V91.288l-7.647-7.643a3.123,3.123,0,0,0-3.127-.777,39.181,39.181,0,0,1-11.521,1.723h-7.909a39.171,39.171,0,0,1,0-78.341h7.909a39.171,39.171,0,0,1,23.54,70.48Z" transform="translate(-196)" fill="#38b0c4"/>
          </g>
        </g>
        <g id="Group_1410" data-name="Group 1410" transform="translate(98.269 21.895)">
          <g id="Group_1409" data-name="Group 1409">
            <path id="Path_571" data-name="Path 571" d="M340.891,82.362A13.261,13.261,0,0,0,328.623,70.1a13.129,13.129,0,0,0-9.957,3.525,13.278,13.278,0,0,0-4.2,9.673,3.125,3.125,0,0,0,6.25,0,6.981,6.981,0,0,1,7.482-6.963,6.982,6.982,0,0,1,1.033,13.775,5.914,5.914,0,0,0-4.659,5.8v7.508a3.125,3.125,0,1,0,6.25,0V96.152A13.162,13.162,0,0,0,340.891,82.362Z" transform="translate(-314.462 -70.063)" fill="#3b728f"/>
          </g>
        </g>
        <g id="Group_1412" data-name="Group 1412" transform="translate(108.375 64.478)">
          <g id="Group_1411" data-name="Group 1411">
            <path id="Path_572" data-name="Path 572" d="M352.134,207.246a3.127,3.127,0,1,0,.916,2.209A3.149,3.149,0,0,0,352.134,207.246Z" transform="translate(-346.8 -206.33)" fill="#3b728f"/>
          </g>
        </g>
        <g id="Group_1414" data-name="Group 1414" transform="translate(16.875 96.875)">
          <g id="Group_1413" data-name="Group 1413">
            <path id="Path_573" data-name="Path 573" d="M123.062,310H57.125a3.125,3.125,0,0,0,0,6.25h65.937a3.125,3.125,0,1,0,0-6.25Z" transform="translate(-54 -310)" fill="#38b0c4"/>
          </g>
        </g>
        <g id="Group_1418" data-name="Group 1418" transform="translate(16.875 114.375)">
          <g id="Group_1417" data-name="Group 1417">
            <path id="Path_575" data-name="Path 575" d="M110.771,366H57.125a3.125,3.125,0,0,0,0,6.25h53.646a3.125,3.125,0,0,0,0-6.25Z" transform="translate(-54 -366)" fill="#38b0c4"/>
          </g>
        </g>
        <g id="Group_1420" data-name="Group 1420" transform="translate(16.875 79.375)">
          <g id="Group_1419" data-name="Group 1419">
            <path id="Path_576" data-name="Path 576" d="M102.75,254H57.125a3.125,3.125,0,0,0,0,6.25H102.75a3.125,3.125,0,0,0,0-6.25Z" transform="translate(-54 -254)" fill="#38b0c4"/>
          </g>
        </g>
      </g>
    </g>
    <g id="Group_1435" data-name="Group 1435" transform="translate(37)">
      <text id="Research" transform="translate(566 2112)" fill="#3b728f" font-size="32" font-family="Bahnschrift"><tspan x="-67.664" y="0">Research</tspan></text>
      <g id="search" transform="translate(486 1896.995)">
        <path id="Path_577" data-name="Path 577" d="M144.647,15.357A52.516,52.516,0,0,0,61.471,77.749a6.577,6.577,0,0,0,1.192,7.676l.655.655L52.709,96.687c-1.709-1.709-2.219-2.5-3.537-2.5a2.5,2.5,0,0,0-1.768.732L3.848,138.479a12.5,12.5,0,0,0,17.3,18.056c.151-.147-3.142,3.142,43.937-43.934a2.5,2.5,0,0,0,0-3.536L63.317,107.3,73.926,96.688l.654.654a6.578,6.578,0,0,0,7.676,1.192,52.516,52.516,0,0,0,62.391-83.177ZM17.979,152.633A7.5,7.5,0,1,1,7.347,142.051l41.826-41.828,10.61,10.61Zm41.8-48.874-3.536-3.536L66.854,89.615l3.536,3.536ZM141.111,86.08a47.488,47.488,0,0,1-57.729,7.341,2.5,2.5,0,0,0-3.039.385,1.564,1.564,0,0,1-1.114.461c-.854,0-.993-.341-3.531-2.878-1.752-1.735,4.712,4.712-9.5-9.5a1.574,1.574,0,0,1,0-2.227,2.5,2.5,0,0,0,.385-3.039,47.513,47.513,0,1,1,74.528,9.458Z" transform="translate(0)" fill="#38b0c4"/>
        <path id="Path_578" data-name="Path 578" d="M284.345,51.681a40.006,40.006,0,1,0,0,56.577A40.051,40.051,0,0,0,284.345,51.681Zm-3.536,53.041a35.005,35.005,0,1,1,0-49.5A35.045,35.045,0,0,1,280.809,104.722Z" transform="translate(-148.539 -27.483)" fill="#3b728f"/>
      </g>
      <text id="Research-2" data-name="Research" transform="translate(566 2112)" fill="#3b728f" font-size="32" font-family="Bahnschrift"><tspan x="-67.664" y="0">Research</tspan></text>
    </g>
    <g id="Group_1434" data-name="Group 1434" transform="translate(112)">
      <g id="feedback" transform="translate(783 1883)">
        <path id="Path_579" data-name="Path 579" d="M307.938,21h-18.75a4.687,4.687,0,0,0-4.655,4.154A26.4,26.4,0,0,0,270.34,21H239.188A17.207,17.207,0,0,0,222,38.188v25a17.207,17.207,0,0,0,17.188,17.188h4.688V91.313a14.063,14.063,0,0,0,28.125,0V87.473a10.984,10.984,0,0,1,7.933-10.517l4.567-1.305v.036a4.688,4.688,0,0,0,4.688,4.688h18.75a4.688,4.688,0,0,0,4.688-4.687v-50A4.688,4.688,0,0,0,307.938,21Zm-30.58,46.943a20.4,20.4,0,0,0-14.732,19.531v3.839a4.688,4.688,0,0,1-9.375,0V75.688A4.688,4.688,0,0,0,248.563,71h-9.375a7.821,7.821,0,0,1-7.812-7.812v-25a7.821,7.821,0,0,1,7.813-7.812H270.34a17.061,17.061,0,0,1,14.16,7.577V65.9ZM303.25,71h-9.375V30.375h9.375Z" transform="translate(-152.625)" fill="#3b728f" stroke="#fff" stroke-width="4"/>
        <path id="Path_580" data-name="Path 580" d="M73.438,246H68.75V235.063a14.063,14.063,0,0,0-28.125,0V238.9a10.984,10.984,0,0,1-7.933,10.517l-4.567,1.3v-.036A4.688,4.688,0,0,0,23.438,246H4.688A4.688,4.688,0,0,0,0,250.688v50a4.688,4.688,0,0,0,4.688,4.688h18.75a4.687,4.687,0,0,0,4.655-4.154,26.4,26.4,0,0,0,14.192,4.154H73.438a17.207,17.207,0,0,0,17.188-17.187v-25A17.207,17.207,0,0,0,73.438,246ZM18.75,296H9.375V255.375H18.75Zm62.5-7.812A7.821,7.821,0,0,1,73.438,296H42.285a17.06,17.06,0,0,1-14.16-7.577v-27.95l7.143-2.041A20.4,20.4,0,0,0,50,238.9v-3.839a4.688,4.688,0,0,1,9.375,0v15.625a4.688,4.688,0,0,0,4.688,4.688h9.375a7.821,7.821,0,0,1,7.813,7.813Z" transform="translate(0 -137.5)" fill="#38b0c4" stroke="#fff" stroke-width="4"/>
      </g>
      <text id="Feedback-2" data-name="Feedback" transform="translate(863 2112)" fill="#3b728f" font-size="32" font-family="Bahnschrift"><tspan x="-68.375" y="0">Feedback</tspan></text>
    </g>
    <g id="Group_1433" data-name="Group 1433" transform="translate(233)">
      <g id="feedback-3" data-name="feedback" transform="translate(1377 1883)">
        <path id="Path_579-2" data-name="Path 579" d="M307.938,21h-18.75a4.687,4.687,0,0,0-4.655,4.154A26.4,26.4,0,0,0,270.34,21H239.188A17.207,17.207,0,0,0,222,38.188v25a17.207,17.207,0,0,0,17.188,17.188h4.688V91.313a14.063,14.063,0,0,0,28.125,0V87.473a10.984,10.984,0,0,1,7.933-10.517l4.567-1.305v.036a4.688,4.688,0,0,0,4.688,4.688h18.75a4.688,4.688,0,0,0,4.688-4.687v-50A4.688,4.688,0,0,0,307.938,21Zm-30.58,46.943a20.4,20.4,0,0,0-14.732,19.531v3.839a4.688,4.688,0,0,1-9.375,0V75.688A4.688,4.688,0,0,0,248.563,71h-9.375a7.821,7.821,0,0,1-7.812-7.812v-25a7.821,7.821,0,0,1,7.813-7.812H270.34a17.061,17.061,0,0,1,14.16,7.577V65.9ZM303.25,71h-9.375V30.375h9.375Z" transform="translate(-152.625)" fill="#3b728f" stroke="#fff" stroke-width="4"/>
        <path id="Path_580-2" data-name="Path 580" d="M73.438,246H68.75V235.063a14.063,14.063,0,0,0-28.125,0V238.9a10.984,10.984,0,0,1-7.933,10.517l-4.567,1.3v-.036A4.688,4.688,0,0,0,23.438,246H4.688A4.688,4.688,0,0,0,0,250.688v50a4.688,4.688,0,0,0,4.688,4.688h18.75a4.687,4.687,0,0,0,4.655-4.154,26.4,26.4,0,0,0,14.192,4.154H73.438a17.207,17.207,0,0,0,17.188-17.187v-25A17.207,17.207,0,0,0,73.438,246ZM18.75,296H9.375V255.375H18.75Zm62.5-7.812A7.821,7.821,0,0,1,73.438,296H42.285a17.06,17.06,0,0,1-14.16-7.577v-27.95l7.143-2.041A20.4,20.4,0,0,0,50,238.9v-3.839a4.688,4.688,0,0,1,9.375,0v15.625a4.688,4.688,0,0,0,4.688,4.688h9.375a7.821,7.821,0,0,1,7.813,7.813Z" transform="translate(0 -137.5)" fill="#38b0c4" stroke="#fff" stroke-width="4"/>
      </g>
      <text id="Feedback-4" data-name="Feedback" transform="translate(1457 2112)" fill="#3b728f" font-size="32" font-family="Bahnschrift"><tspan x="-68.375" y="0">Feedback</tspan></text>
    </g>
    <g id="Group_1442" data-name="Group 1442" transform="translate(143 100)">
      <g id="feedback-5" data-name="feedback" transform="translate(1104 2225)">
        <path id="Path_579-3" data-name="Path 579" d="M307.938,21h-18.75a4.687,4.687,0,0,0-4.655,4.154A26.4,26.4,0,0,0,270.34,21H239.188A17.207,17.207,0,0,0,222,38.188v25a17.207,17.207,0,0,0,17.188,17.188h4.688V91.313a14.063,14.063,0,0,0,28.125,0V87.473a10.984,10.984,0,0,1,7.933-10.517l4.567-1.305v.036a4.688,4.688,0,0,0,4.688,4.688h18.75a4.688,4.688,0,0,0,4.688-4.687v-50A4.688,4.688,0,0,0,307.938,21Zm-30.58,46.943a20.4,20.4,0,0,0-14.732,19.531v3.839a4.688,4.688,0,0,1-9.375,0V75.688A4.688,4.688,0,0,0,248.563,71h-9.375a7.821,7.821,0,0,1-7.812-7.812v-25a7.821,7.821,0,0,1,7.813-7.812H270.34a17.061,17.061,0,0,1,14.16,7.577V65.9ZM303.25,71h-9.375V30.375h9.375Z" transform="translate(-152.625)" fill="#3b728f" stroke="#fff" stroke-width="4"/>
        <path id="Path_580-3" data-name="Path 580" d="M73.438,246H68.75V235.063a14.063,14.063,0,0,0-28.125,0V238.9a10.984,10.984,0,0,1-7.933,10.517l-4.567,1.3v-.036A4.688,4.688,0,0,0,23.438,246H4.688A4.688,4.688,0,0,0,0,250.688v50a4.688,4.688,0,0,0,4.688,4.688h18.75a4.687,4.687,0,0,0,4.655-4.154,26.4,26.4,0,0,0,14.192,4.154H73.438a17.207,17.207,0,0,0,17.188-17.187v-25A17.207,17.207,0,0,0,73.438,246ZM18.75,296H9.375V255.375H18.75Zm62.5-7.812A7.821,7.821,0,0,1,73.438,296H42.285a17.06,17.06,0,0,1-14.16-7.577v-27.95l7.143-2.041A20.4,20.4,0,0,0,50,238.9v-3.839a4.688,4.688,0,0,1,9.375,0v15.625a4.688,4.688,0,0,0,4.688,4.688h9.375a7.821,7.821,0,0,1,7.813,7.813Z" transform="translate(0 -137.5)" fill="#38b0c4" stroke="#fff" stroke-width="4"/>
      </g>
      <text id="Feedback-6" data-name="Feedback" transform="translate(1184 2454)" fill="#3b728f" font-size="32" font-family="Bahnschrift"><tspan x="-68.375" y="0">Feedback</tspan></text>
    </g>
    <g id="Group_1444" data-name="Group 1444" transform="translate(-124 100)">
      <g id="feedback-7" data-name="feedback" transform="translate(627 2225)">
        <path id="Path_579-4" data-name="Path 579" d="M307.938,21h-18.75a4.687,4.687,0,0,0-4.655,4.154A26.4,26.4,0,0,0,270.34,21H239.188A17.207,17.207,0,0,0,222,38.188v25a17.207,17.207,0,0,0,17.188,17.188h4.688V91.313a14.063,14.063,0,0,0,28.125,0V87.473a10.984,10.984,0,0,1,7.933-10.517l4.567-1.305v.036a4.688,4.688,0,0,0,4.688,4.688h18.75a4.688,4.688,0,0,0,4.688-4.687v-50A4.688,4.688,0,0,0,307.938,21Zm-30.58,46.943a20.4,20.4,0,0,0-14.732,19.531v3.839a4.688,4.688,0,0,1-9.375,0V75.688A4.688,4.688,0,0,0,248.563,71h-9.375a7.821,7.821,0,0,1-7.812-7.812v-25a7.821,7.821,0,0,1,7.813-7.812H270.34a17.061,17.061,0,0,1,14.16,7.577V65.9ZM303.25,71h-9.375V30.375h9.375Z" transform="translate(-152.625)" fill="#3b728f" stroke="#fff" stroke-width="4"/>
        <path id="Path_580-4" data-name="Path 580" d="M73.438,246H68.75V235.063a14.063,14.063,0,0,0-28.125,0V238.9a10.984,10.984,0,0,1-7.933,10.517l-4.567,1.3v-.036A4.688,4.688,0,0,0,23.438,246H4.688A4.688,4.688,0,0,0,0,250.688v50a4.688,4.688,0,0,0,4.688,4.688h18.75a4.687,4.687,0,0,0,4.655-4.154,26.4,26.4,0,0,0,14.192,4.154H73.438a17.207,17.207,0,0,0,17.188-17.187v-25A17.207,17.207,0,0,0,73.438,246ZM18.75,296H9.375V255.375H18.75Zm62.5-7.812A7.821,7.821,0,0,1,73.438,296H42.285a17.06,17.06,0,0,1-14.16-7.577v-27.95l7.143-2.041A20.4,20.4,0,0,0,50,238.9v-3.839a4.688,4.688,0,0,1,9.375,0v15.625a4.688,4.688,0,0,0,4.688,4.688h9.375a7.821,7.821,0,0,1,7.813,7.813Z" transform="translate(0 -137.5)" fill="#38b0c4" stroke="#fff" stroke-width="4"/>
      </g>
      <text id="Feedback-8" data-name="Feedback" transform="translate(707 2454)" fill="#3b728f" font-size="32" font-family="Bahnschrift"><tspan x="-68.375" y="0">Feedback</tspan></text>
    </g>
    <g id="Group_1432" data-name="Group 1432" transform="translate(149)">
      <text id="Ideate" transform="translate(1184 2112)" fill="#3b728f" font-size="32" font-family="Bahnschrift"><tspan x="-43.922" y="0">Ideate</tspan></text>
      <g id="solution" transform="translate(1112 1896)">
        <path id="Path_581" data-name="Path 581" d="M87.194,1H51.065a7.751,7.751,0,0,0-7.742,7.742V13.9a10.323,10.323,0,1,0,0,20.645v12.9H63.968V42.29a5.161,5.161,0,1,1,10.323,0v5.161h12.9a7.751,7.751,0,0,0,7.742-7.742V8.742A7.751,7.751,0,0,0,87.194,1Zm2.581,38.71a2.583,2.583,0,0,1-2.581,2.581H79.452a10.323,10.323,0,0,0-20.645,0H48.484v-12.9H43.323a5.161,5.161,0,1,1,0-10.323h5.161V8.742a2.583,2.583,0,0,1,2.581-2.581H87.194a2.583,2.583,0,0,1,2.581,2.581Z" transform="translate(41.097 0)" fill="#3b728f"/>
        <path id="Path_582" data-name="Path 582" d="M84.419,43.129A10.333,10.333,0,0,0,74.1,53.452H63.774v-12.9H58.613a5.161,5.161,0,0,1,0-10.323h5.161V7H56.855A49.855,49.855,0,0,0,25.286,95.441l10.1,8.266v7a7.7,7.7,0,0,0,.568,14.71A7.667,7.667,0,0,0,40.688,135.6a18.052,18.052,0,0,0,35.85,0,7.67,7.67,0,0,0,4.733-10.191,7.7,7.7,0,0,0,.568-14.71v-7l10.1-8.266a49.663,49.663,0,0,0,18.286-38.583v-3.4H94.742A10.333,10.333,0,0,0,84.419,43.129ZM56.855,12.161h1.757v12.9a10.323,10.323,0,0,0,0,20.645v7.742H48.29a10.323,10.323,0,1,0-20.645,0H12.29A44.753,44.753,0,0,1,56.855,12.161Zm-28.3,79.285A44.5,44.5,0,0,1,12.2,58.613H32.806V53.452a5.161,5.161,0,1,1,10.323,0v5.161H58.613V68.935a10.323,10.323,0,1,0,0,20.645v20.645H40.548v-8.965Zm30.059,54.908A12.927,12.927,0,0,1,45.97,136.032H71.255A12.927,12.927,0,0,1,58.613,146.355ZM74.1,130.871H43.129a2.581,2.581,0,0,1,0-5.161H74.1a2.581,2.581,0,1,1,0,5.161Zm5.161-10.323H37.968a2.581,2.581,0,1,1,0-5.161h41.29a2.581,2.581,0,0,1,0,5.161Zm9.414-29.1-11.995,9.814v8.965h-12.9V84.419H58.613a5.161,5.161,0,0,1,0-10.323h5.161V58.613H79.258V53.452a5.161,5.161,0,1,1,10.323,0v5.161h15.448A44.5,44.5,0,0,1,88.672,91.446Z" transform="translate(0 9.484)" fill="#38b0c4"/>
      </g>
    </g>
    <g id="Group_1440" data-name="Group 1440" transform="translate(221 128)">
      <text id="Wireframe" transform="translate(1469 2426)" fill="#3b728f" font-size="32" font-family="Bahnschrift"><tspan x="-75.195" y="0">Wireframe</tspan></text>
      <g id="finding" transform="translate(1389 2211)">
        <g id="Group_1421" data-name="Group 1421" transform="translate(0 53.333)">
          <path id="Path_583" data-name="Path 583" d="M30,114.667H10a10.012,10.012,0,0,1-10-10V18A10.012,10.012,0,0,1,10,8H30A10.012,10.012,0,0,1,40,18v86.667A10.012,10.012,0,0,1,30,114.667Zm-20-100A3.343,3.343,0,0,0,6.667,18v86.667A3.343,3.343,0,0,0,10,108H30a3.343,3.343,0,0,0,3.333-3.333V18A3.343,3.343,0,0,0,30,14.667Z" transform="translate(0 -8)" fill="#38b0c4"/>
        </g>
        <g id="Group_1423" data-name="Group 1423" transform="translate(55.272 55.272)">
          <path id="Path_585" data-name="Path 585" d="M107.752,111.086a3.348,3.348,0,0,1-2.36-.973L9.266,13.979a3.333,3.333,0,0,1,4.713-4.713L110.112,105.4a3.33,3.33,0,0,1-2.36,5.687Z" transform="translate(-8.291 -8.291)" fill="#38b0c4"/>
        </g>
        <g id="Group_1424" data-name="Group 1424" transform="translate(55.265 55.272)">
          <path id="Path_586" data-name="Path 586" d="M11.625,111.086a3.33,3.33,0,0,1-2.36-5.687L105.4,9.266a3.333,3.333,0,1,1,4.713,4.713L13.978,110.112A3.321,3.321,0,0,1,11.625,111.086Z" transform="translate(-8.29 -8.291)" fill="#38b0c4"/>
        </g>
        <g id="Group_1427" data-name="Group 1427" transform="translate(120)">
          <g id="Group_1425" data-name="Group 1425">
            <path id="Path_587" data-name="Path 587" d="M34.667,33.333A16.667,16.667,0,1,1,51.333,16.667,16.681,16.681,0,0,1,34.667,33.333Zm0-26.667a10,10,0,1,0,10,10A10.012,10.012,0,0,0,34.667,6.667Z" transform="translate(-18)" fill="#3b728f"/>
          </g>
          <g id="Group_1426" data-name="Group 1426" transform="translate(23.332 23.338)">
            <path id="Path_588" data-name="Path 588" d="M34.835,20.162a3.348,3.348,0,0,1-2.36-.973l-10-10a3.333,3.333,0,1,1,4.713-4.713l10,10a3.33,3.33,0,0,1-2.353,5.687Z" transform="translate(-21.5 -3.501)" fill="#3b728f"/>
          </g>
        </g>
        <g id="Group_1428" data-name="Group 1428">
          <path id="Path_589" data-name="Path 589" d="M96.667,40H10A10.012,10.012,0,0,1,0,30V10A10.012,10.012,0,0,1,10,0H96.667a10.012,10.012,0,0,1,10,10V30A10.012,10.012,0,0,1,96.667,40ZM10,6.667A3.343,3.343,0,0,0,6.667,10V30A3.343,3.343,0,0,0,10,33.333H96.667A3.343,3.343,0,0,0,100,30V10a3.343,3.343,0,0,0-3.333-3.333Z" fill="#3b728f"/>
        </g>
        <g id="Group_1422" data-name="Group 1422" transform="translate(53.333 53.333)">
          <path id="Path_584" data-name="Path 584" d="M104.667,114.667H18a10.012,10.012,0,0,1-10-10V18A10.012,10.012,0,0,1,18,8h86.667a10.012,10.012,0,0,1,10,10v86.667A10.012,10.012,0,0,1,104.667,114.667ZM18,14.667A3.343,3.343,0,0,0,14.667,18v86.667A3.343,3.343,0,0,0,18,108h86.667A3.343,3.343,0,0,0,108,104.667V18a3.343,3.343,0,0,0-3.333-3.333Z" transform="translate(-8 -8)" fill="#38b0c4"/>
        </g>
      </g>
    </g>
    <g id="Group_1443" data-name="Group 1443" transform="translate(5 100)">
      <text id="Information_Architecture" data-name="Information
Architecture" transform="translate(950 2454)" fill="#3b728f" font-size="32" font-family="Bahnschrift"><tspan x="-82.836" y="0">Information</tspan><tspan x="-89.086" y="40">Architecture</tspan></text>
      <g id="Group_1430" data-name="Group 1430" transform="translate(0 22)">
        <g id="hierarchical-structure" transform="translate(630 2054.336)">
          <g id="Group_1429" data-name="Group 1429" transform="translate(0 19.664)">
            <path id="Path_590" data-name="Path 590" d="M147.506,127.859h-4.657v-5.881A25.28,25.28,0,0,0,117.6,96.727H85.734V74.98H99.7A12.508,12.508,0,0,0,112.2,62.486V32.158A12.508,12.508,0,0,0,99.7,19.664H62.382A12.508,12.508,0,0,0,49.888,32.158V62.485A12.508,12.508,0,0,0,62.382,74.979H76.351V96.727H42.611A25.279,25.279,0,0,0,17.36,121.978v5.881H12.494A12.509,12.509,0,0,0,0,140.353V154.88a12.508,12.508,0,0,0,12.494,12.494H31.608A12.508,12.508,0,0,0,44.1,154.88V140.353a12.508,12.508,0,0,0-12.494-12.494H26.743v-5.881A15.885,15.885,0,0,1,42.61,106.111h33.74v21.748H71.485a12.508,12.508,0,0,0-12.494,12.494V154.88a12.508,12.508,0,0,0,12.494,12.494H90.6a12.508,12.508,0,0,0,12.494-12.494V140.353A12.508,12.508,0,0,0,90.6,127.859H85.734V106.111H117.6a15.885,15.885,0,0,1,15.868,15.867v5.881h-5.074A12.508,12.508,0,0,0,115.9,140.353V154.88a12.508,12.508,0,0,0,12.494,12.494h19.114A12.508,12.508,0,0,0,160,154.88V140.353A12.508,12.508,0,0,0,147.506,127.859Zm-115.9,9.383a3.114,3.114,0,0,1,3.11,3.111V154.88a3.114,3.114,0,0,1-3.11,3.11H12.494a3.114,3.114,0,0,1-3.111-3.11V140.353a3.114,3.114,0,0,1,3.111-3.111Zm58.991,0a3.114,3.114,0,0,1,3.11,3.111V154.88a3.114,3.114,0,0,1-3.11,3.11H71.486a3.114,3.114,0,0,1-3.111-3.11V140.353a3.114,3.114,0,0,1,3.111-3.111ZM62.382,65.6a3.114,3.114,0,0,1-3.11-3.111V32.158a3.114,3.114,0,0,1,3.11-3.111H99.7a3.114,3.114,0,0,1,3.11,3.111V62.485A3.114,3.114,0,0,1,99.7,65.6H62.382Zm88.234,89.284a3.114,3.114,0,0,1-3.111,3.11H128.392a3.114,3.114,0,0,1-3.11-3.11V140.353a3.114,3.114,0,0,1,3.11-3.111h19.114a3.114,3.114,0,0,1,3.111,3.111Z" transform="translate(240 129.336)" fill="#38b0c4" stroke="#fff" stroke-width="3"/>
          </g>
        </g>
        <path id="Path_590-2" data-name="Path 590" d="M142.849,127.859v-5.881A25.28,25.28,0,0,0,117.6,96.727H85.734V74.98H76.351V96.727H42.611A25.279,25.279,0,0,0,17.36,121.978v5.881h9.383v-5.881A15.885,15.885,0,0,1,42.61,106.111h33.74v21.748h9.384V106.111H117.6a15.885,15.885,0,0,1,15.868,15.867v5.881Z" transform="translate(869.64 2204.021)" fill="#3b728f" stroke="#fff" stroke-width="4"/>
      </g>
    </g>
    <g id="Group_1441" data-name="Group 1441" transform="translate(0 128)">
      <text id="Visual_Design" data-name="Visual 
Design" transform="translate(225 2426)" fill="#3b728f" font-size="32" font-family="Bahnschrift"><tspan x="-48.047" y="0">Visual </tspan><tspan x="-48.953" y="40">Design</tspan></text>
      <g id="Group_1431" data-name="Group 1431" transform="translate(0 -269)">
        <path id="Path_594" data-name="Path 594" d="M81.694,97.81a4.688,4.688,0,0,0-4.678,4.395c-2.682,42.921-2.509,40.065-2.509,40.292a17.553,17.553,0,0,0,4.978,12.253,16.82,16.82,0,0,0,24.418,0,17.555,17.555,0,0,0,4.978-12.253c0-.227.173,2.625-2.509-40.292a4.688,4.688,0,0,0-4.678-4.395h-20Zm17.812,44.816a7.814,7.814,0,1,1-15.623,0L86.1,107.185H97.29Z" transform="translate(132.994 2480)" fill="#38b0c4"/>
        <path id="Path_592" data-name="Path 592" d="M161.694,22.812H26.381V17.5a4.688,4.688,0,0,0-9.375,0V40a4.688,4.688,0,0,0,9.375,0V32.187H157.006V61.339L90.557,77.951A4.687,4.687,0,0,0,87.006,82.5V97.81h9.375V86.158l66.449-16.612A4.687,4.687,0,0,0,166.381,65V27.5A4.688,4.688,0,0,0,161.694,22.812Z" transform="translate(132.994 2480)" fill="#3b728f"/>
        <path id="Path_593" data-name="Path 593" d="M146.381,22.812V4.687A4.688,4.688,0,0,0,141.694,0h-100a4.688,4.688,0,0,0-4.687,4.687V50a4.688,4.688,0,0,0,4.688,4.687h100A4.688,4.688,0,0,0,146.381,50V22.812Zm-9.375,22.5H46.381V9.375h90.625Z" transform="translate(132.994 2480)" fill="#38b0c4"/>
        <rect id="Rectangle_377" data-name="Rectangle 377" width="91" height="26" transform="translate(179 2495)" fill="#fff"/>
      </g>
    </g>
    <g id="Group_1445" data-name="Group 1445" transform="translate(13.5)">
      <line id="Line_99" data-name="Line 99" x2="108" transform="translate(344.5 2008.5)" fill="none" stroke="#999" stroke-linecap="round" stroke-width="4"/>
      <g id="Polygon_1" data-name="Polygon 1" transform="translate(461 1993) rotate(90)" fill="#fff" stroke-linecap="round">
        <path d="M 29.31564903259277 24.5 L 2.684351444244385 24.5 L 16 2.86207127571106 L 29.31564903259277 24.5 Z" stroke="none"/>
        <path d="M 16 5.724115371704102 L 5.368686676025391 23 L 26.63131332397461 23 L 16 5.724115371704102 M 16 0 L 32 26 L 0 26 L 16 0 Z" stroke="none" fill="#999"/>
      </g>
    </g>
    <g id="Group_1450" data-name="Group 1450" transform="translate(1450 2434)">
      <line id="Line_99-2" data-name="Line 99" x1="108" transform="translate(8.5 15.5)" fill="none" stroke="#999" stroke-linecap="round" stroke-width="4"/>
      <g id="Polygon_1-2" data-name="Polygon 1" transform="translate(0 32) rotate(-90)" fill="#fff" stroke-linecap="round">
        <path d="M 29.31564712524414 24.5 L 2.684350490570068 24.5 L 15.99999904632568 2.86207127571106 L 29.31564712524414 24.5 Z" stroke="none"/>
        <path d="M 15.99999904632568 5.724115371704102 L 5.368686676025391 23 L 26.63131141662598 23 L 15.99999904632568 5.724115371704102 M 15.99999904632568 0 L 32 26 L -1.9073486328125e-06 26 L 15.99999904632568 0 Z" stroke="none" fill="#999"/>
      </g>
    </g>
    <g id="Group_1446" data-name="Group 1446" transform="translate(386.5)">
      <line id="Line_99-3" data-name="Line 99" x2="108" transform="translate(344.5 2008.5)" fill="none" stroke="#999" stroke-linecap="round" stroke-width="4"/>
      <g id="Polygon_1-3" data-name="Polygon 1" transform="translate(461 1993) rotate(90)" fill="#fff" stroke-linecap="round">
        <path d="M 29.31564903259277 24.5 L 2.684351444244385 24.5 L 16 2.86207127571106 L 29.31564903259277 24.5 Z" stroke="none"/>
        <path d="M 16 5.724115371704102 L 5.368686676025391 23 L 26.63131332397461 23 L 16 5.724115371704102 M 16 0 L 32 26 L 0 26 L 16 0 Z" stroke="none" fill="#999"/>
      </g>
    </g>
    <g id="Group_1451" data-name="Group 1451" transform="translate(1087 2434)">
      <line id="Line_99-4" data-name="Line 99" x1="108" transform="translate(8.5 15.5)" fill="none" stroke="#999" stroke-linecap="round" stroke-width="4"/>
      <g id="Polygon_1-4" data-name="Polygon 1" transform="translate(0 32) rotate(-90)" fill="#fff" stroke-linecap="round">
        <path d="M 29.31564712524414 24.5 L 2.684350490570068 24.5 L 15.99999904632568 2.86207127571106 L 29.31564712524414 24.5 Z" stroke="none"/>
        <path d="M 15.99999904632568 5.724115371704102 L 5.368686676025391 23 L 26.63131141662598 23 L 15.99999904632568 5.724115371704102 M 15.99999904632568 0 L 32 26 L -1.9073486328125e-06 26 L 15.99999904632568 0 Z" stroke="none" fill="#999"/>
      </g>
    </g>
    <g id="Group_1447" data-name="Group 1447" transform="translate(758.5)">
      <line id="Line_99-5" data-name="Line 99" x2="108" transform="translate(344.5 2008.5)" fill="none" stroke="#999" stroke-linecap="round" stroke-width="4"/>
      <g id="Polygon_1-5" data-name="Polygon 1" transform="translate(461 1993) rotate(90)" fill="#fff" stroke-linecap="round">
        <path d="M 29.31564903259277 24.5 L 2.684351444244385 24.5 L 16 2.86207127571106 L 29.31564903259277 24.5 Z" stroke="none"/>
        <path d="M 16 5.724115371704102 L 5.368686676025391 23 L 26.63131332397461 23 L 16 5.724115371704102 M 16 0 L 32 26 L 0 26 L 16 0 Z" stroke="none" fill="#999"/>
      </g>
    </g>
    <g id="Group_1452" data-name="Group 1452" transform="translate(706 2434)">
      <line id="Line_99-6" data-name="Line 99" x1="108" transform="translate(8.5 15.5)" fill="none" stroke="#999" stroke-linecap="round" stroke-width="4"/>
      <g id="Polygon_1-6" data-name="Polygon 1" transform="translate(0 32) rotate(-90)" fill="#fff" stroke-linecap="round">
        <path d="M 29.31564712524414 24.5 L 2.684350490570068 24.5 L 15.99999904632568 2.86207127571106 L 29.31564712524414 24.5 Z" stroke="none"/>
        <path d="M 15.99999904632568 5.724115371704102 L 5.368686676025391 23 L 26.63131141662598 23 L 15.99999904632568 5.724115371704102 M 15.99999904632568 0 L 32 26 L -1.9073486328125e-06 26 L 15.99999904632568 0 Z" stroke="none" fill="#999"/>
      </g>
    </g>
    <g id="Group_1448" data-name="Group 1448" transform="translate(1100.5)">
      <line id="Line_99-7" data-name="Line 99" x2="108" transform="translate(344.5 2008.5)" fill="none" stroke="#999" stroke-linecap="round" stroke-width="4"/>
      <g id="Polygon_1-7" data-name="Polygon 1" transform="translate(461 1993) rotate(90)" fill="#fff" stroke-linecap="round">
        <path d="M 29.31564903259277 24.5 L 2.684351444244385 24.5 L 16 2.86207127571106 L 29.31564903259277 24.5 Z" stroke="none"/>
        <path d="M 16 5.724115371704102 L 5.368686676025391 23 L 26.63131332397461 23 L 16 5.724115371704102 M 16 0 L 32 26 L 0 26 L 16 0 Z" stroke="none" fill="#999"/>
      </g>
    </g>
    <g id="Group_1449" data-name="Group 1449" transform="translate(343 2434)">
      <line id="Line_99-8" data-name="Line 99" x1="108" transform="translate(8.5 15.5)" fill="none" stroke="#999" stroke-linecap="round" stroke-width="4"/>
      <g id="Polygon_1-8" data-name="Polygon 1" transform="translate(0 32) rotate(-90)" fill="#fff" stroke-linecap="round">
        <path d="M 29.31564712524414 24.5 L 2.684350490570068 24.5 L 15.99999904632568 2.86207127571106 L 29.31564712524414 24.5 Z" stroke="none"/>
        <path d="M 15.99999904632568 5.724115371704102 L 5.368686676025391 23 L 26.63131141662598 23 L 15.99999904632568 5.724115371704102 M 15.99999904632568 0 L 32 26 L -1.9073486328125e-06 26 L 15.99999904632568 0 Z" stroke="none" fill="#999"/>
      </g>
    </g>
    <g id="Group_1453" data-name="Group 1453" transform="translate(3699.25 1826.5) rotate(90)">
      <line id="Line_99-9" data-name="Line 99" x2="108" transform="translate(344.5 2008.5)" fill="none" stroke="#999" stroke-linecap="round" stroke-width="4"/>
      <g id="Polygon_1-9" data-name="Polygon 1" transform="translate(461 1993) rotate(90)" fill="#fff" stroke-linecap="round">
        <path d="M 29.31564903259277 24.5 L 2.684351444244385 24.5 L 16 2.86207127571106 L 29.31564903259277 24.5 Z" stroke="none"/>
        <path d="M 16 5.724115371704102 L 5.368686676025391 23 L 26.63131332397461 23 L 16 5.724115371704102 M 16 0 L 32 26 L 0 26 L 16 0 Z" stroke="none" fill="#999"/>
      </g>
    </g>
  </g>
</svg>
