<svg xmlns="http://www.w3.org/2000/svg" width="113.5" height="130.5" viewBox="0 0 113.5 130.5">
  <g id="Group_1345" data-name="Group 1345" transform="translate(-221.5 -143.847)">
    <g id="Group_1341" data-name="Group 1341" transform="translate(222 220.158)">
      <g id="Group_1336" data-name="Group 1336" transform="translate(0 0)">
        <path id="Path_556" data-name="Path 556" d="M81.074,80h25.771a1.074,1.074,0,0,1,1.074,1.074v9.664a1.074,1.074,0,0,1-1.413,1.018l-1.35-.45a2.792,2.792,0,1,0,0,5.307l1.35-.45a1.074,1.074,0,0,1,1.413,1.018v8.59h8.59a1.074,1.074,0,0,1,1.018,1.413l-.45,1.35a2.792,2.792,0,1,0,5.307,0l-.45-1.35a1.074,1.074,0,0,1,1.018-1.413h9.664a1.074,1.074,0,0,1,1.074,1.074v25.771a1.074,1.074,0,0,1-1.074,1.074H81.074A1.074,1.074,0,0,1,80,132.615V81.074A1.074,1.074,0,0,1,81.074,80Z" transform="translate(-80 -80)" fill="#38b0c4" stroke="#fff" stroke-width="1"/>
      </g>
      <g id="Group_1340" data-name="Group 1340" transform="translate(0 0)">
        <path id="Path_556-2" data-name="Path 556" d="M81.074,80h25.771a1.074,1.074,0,0,1,1.074,1.074v9.664a1.074,1.074,0,0,1-1.413,1.018l-1.35-.45a2.792,2.792,0,1,0,0,5.307l1.35-.45a1.074,1.074,0,0,1,1.413,1.018v8.59h8.59a1.074,1.074,0,0,1,1.018,1.413l-.45,1.35a2.792,2.792,0,1,0,5.307,0l-.45-1.35a1.074,1.074,0,0,1,1.018-1.413h9.664a1.074,1.074,0,0,1,1.074,1.074v25.771a1.074,1.074,0,0,1-1.074,1.074H81.074A1.074,1.074,0,0,1,80,132.615V81.074A1.074,1.074,0,0,1,81.074,80Zm26.789,42.612a1.075,1.075,0,0,1,.055.339v8.59h23.623V107.918h-7.1a4.939,4.939,0,1,1-9.421,0h-7.1v8.59a1.074,1.074,0,0,1-1.413,1.018l-1.35-.45a2.792,2.792,0,1,0,0,5.307l1.35-.45A1.074,1.074,0,0,1,107.863,122.612Zm-25.715,8.929h23.623v-7.1a4.939,4.939,0,1,1,0-9.421v-7.1H97.18a1.074,1.074,0,0,1-1.018-1.413l.45-1.35a2.792,2.792,0,1,0-5.307,0l.45,1.35a1.074,1.074,0,0,1-1.018,1.413h-8.59v23.623Zm0-25.771h7.1a4.939,4.939,0,1,1,9.421,0h7.1v-7.1a4.949,4.949,0,1,1,0-9.421v-7.1H82.148Z" transform="translate(-80 -80)" fill="#fff"/>
      </g>
    </g>
    <g id="Group_1344" data-name="Group 1344" transform="translate(267.327 143.847)">
      <g id="Group_1339" data-name="Group 1339" transform="translate(0 44.918)">
        <g id="Group_1338" data-name="Group 1338">
          <path id="Path_557" data-name="Path 557" d="M3.984,10.665a5.7,5.7,0,0,1,3.426,0V1.238A1.238,1.238,0,0,1,8.649,0H38.365A1.238,1.238,0,0,1,39.6,1.238V30.955a1.238,1.238,0,0,1-1.238,1.238H28.939a5.7,5.7,0,1,1-10.864,0H8.649A1.238,1.238,0,0,1,7.41,30.955V21.528A5.7,5.7,0,0,1,3.984,10.665ZM4.7,19.156a3.219,3.219,0,0,0,2,0l1.556-.519a1.238,1.238,0,0,1,1.629,1.174v9.906h9.906a1.238,1.238,0,0,1,1.174,1.629L20.447,32.9a3.219,3.219,0,1,0,6.119,0l-.519-1.556a1.238,1.238,0,0,1,1.174-1.629h9.906V2.476H9.887v9.906a1.238,1.238,0,0,1-1.629,1.174L6.7,13.037a3.219,3.219,0,0,0-2,6.119Z" transform="translate(0)" fill="#38b0c4"/>
        </g>
      </g>
      <g id="Group_1343" data-name="Group 1343" transform="translate(8.791 0)">
        <g id="light-bulb" transform="translate(0)">
          <g id="Group_1342" data-name="Group 1342">
            <path id="Path_558" data-name="Path 558" d="M135.043,92.3a16.435,16.435,0,0,0-16.379,13.783,15.915,15.915,0,0,0,4.1,12.906,16.33,16.33,0,0,1,4.35,11.152l-.012,6.513a4.809,4.809,0,0,0,4.867,4.759h6.273a4.809,4.809,0,0,0,4.867-4.759l.012-6.513a15.386,15.386,0,0,1,4.1-10.9,15.482,15.482,0,0,0,4.482-10.9C151.686,99.438,144.127,92.3,135.043,92.3Zm5.624,44.354a2.275,2.275,0,0,1-2.307,2.259h-6.273a2.267,2.267,0,0,1-2.307-2.259V133.77h10.875v2.884Zm4.759-19.167a17.824,17.824,0,0,0-4.867,12.654v1.13H129.683v-1.13a19.27,19.27,0,0,0-5.119-12.774,13.224,13.224,0,0,1-3.461-10.9,14.125,14.125,0,0,1,13.952-11.656c7.811,0,14.084,6.141,14.084,13.531A13.094,13.094,0,0,1,145.425,117.487Z" transform="translate(-105.601 -82.53)" fill="#38b0c4"/>
            <rect id="Rectangle_361" data-name="Rectangle 361" width="2.56" height="6.008" transform="translate(28.155)" fill="#38b0c4"/>
            <path id="Path_559" data-name="Path 559" d="M385.1,76.518l1.791,1.791,4.386-4.218-1.8-1.791Z" transform="translate(-340.145 -64.934)" fill="#38b0c4"/>
            <rect id="Rectangle_362" data-name="Rectangle 362" width="6.273" height="2.512" transform="translate(52.61 27.062)" fill="#38b0c4"/>
            <rect id="Rectangle_363" data-name="Rectangle 363" width="6.273" height="2.512" transform="translate(0 27.062)" fill="#38b0c4"/>
            <path id="Path_560" data-name="Path 560" d="M76.9,72.2l-1.8,1.791,4.386,4.218,1.791-1.791Z" transform="translate(-67.397 -64.846)" fill="#38b0c4"/>
          </g>
        </g>
        <path id="Path_558-2" data-name="Path 558" d="M140.449,136.433a2.275,2.275,0,0,1-2.307,2.259h-6.273a2.267,2.267,0,0,1-2.307-2.259v-2.884h10.875v2.884Zm4.759-19.167a17.824,17.824,0,0,0-4.867,12.654v1.13H129.466v-1.13a19.27,19.27,0,0,0-5.119-12.774,13.224,13.224,0,0,1-3.461-10.9A14.125,14.125,0,0,1,134.838,94.59c7.811,0,14.084,6.141,14.084,13.531A13.1,13.1,0,0,1,145.208,117.266Z" transform="translate(-105.384 -82.309)" fill="#fff"/>
      </g>
    </g>
  </g>
</svg>
