<svg xmlns="http://www.w3.org/2000/svg" width="109" height="111" viewBox="0 0 109 111">
  <g id="Group_1348" data-name="Group 1348" transform="translate(-1600 -146)">
    <g id="paintbrush" transform="translate(1664.438 146)">
      <g id="Group_1346" data-name="Group 1346" transform="translate(0 0)">
        <path id="Path_561" data-name="Path 561" d="M49.787.82A.885.885,0,0,0,48.212.334S45.5,3.661,41.557,3.44c-3.1-.168-4.425,3.726-4.9,5.8a.885.885,0,0,0-.319.133l-4.929,3.425a.885.885,0,0,0-.226,1.231.9.9,0,0,0,.1.123l.186.186C27.211,17.989,6.362,36.387,5.3,44.732a.885.885,0,0,0,.885,1h.106c8.345-1.062,26.744-21.921,30.416-26.16l.186.186a.885.885,0,0,0,.628.257h.08a.885.885,0,0,0,.681-.372l3.425-4.929a.885.885,0,0,0,.15-.6,8.407,8.407,0,0,0,4.85-2.15C49.1,9.7,50.141,5.944,49.787.82ZM7.37,43.653c2.814-8.266,21.673-24.894,25.345-28.071l2.735,2.735C32.265,21.98,15.636,40.83,7.37,43.653ZM37.4,17.75l-4.124-4.124,3.451-2.389,3.062,3.1Zm8.08-7.115a7.08,7.08,0,0,1-5.106,1.77l-2.142-2.142C38.565,8.537,39.6,5.077,41.442,5.2a9.788,9.788,0,0,0,6.628-2.31C48.07,6.431,47.185,9.042,45.477,10.635Z" transform="translate(-5.292 0)" fill="#38b0c4"/>
      </g>
    </g>
    <g id="palette" transform="translate(1600 192)">
      <g id="Group_1347" data-name="Group 1347">
        <path id="Path_562" data-name="Path 562" d="M32.5,0a32.5,32.5,0,0,0,0,65,5.409,5.409,0,0,0,5.417-5.417,5.3,5.3,0,0,0-1.408-3.629,5.424,5.424,0,0,1,4.063-9.01h6.374A18.062,18.062,0,0,0,65,28.889C65,12.928,50.447,0,32.5,0ZM12.639,32.5a5.417,5.417,0,1,1,5.417-5.417A5.409,5.409,0,0,1,12.639,32.5ZM23.472,18.056a5.417,5.417,0,1,1,5.417-5.417A5.409,5.409,0,0,1,23.472,18.056Zm18.055,0a5.417,5.417,0,1,1,5.417-5.417A5.409,5.409,0,0,1,41.528,18.056ZM52.361,32.5a5.417,5.417,0,1,1,5.417-5.417A5.409,5.409,0,0,1,52.361,32.5Z" fill="#38b0c4"/>
      </g>
    </g>
  </g>
</svg>
